<svg xmlns="http://www.w3.org/2000/svg" width="41" height="15" viewBox="0 0 41 15">
    <g fill="#FFF" fill-rule="evenodd">
        <path d="M12.937 13.18H10.81l-.115-1.377c-.824 1.012-2.012 1.616-3.608 1.616-3.587 0-6.09-2.554-6.09-5.828 0-3.566 2.629-6.069 6.121-6.069 2.784 0 5.204 1.575 5.694 4.296H9.84C9.34 4.494 8.193 4.13 7.17 4.13c-1.949 0-3.294 1.376-3.294 3.389 0 1.804 1.293 3.264 3.326 3.264 1.324 0 2.336-.657 2.889-1.752l-3.275-.031V6.767h6.121v6.413zm9.165-3.451l-2.742-.616c-3.285-.708-4.827-2.252-4.827-4.9 0-1.815.802-3.275 2.178-4.213H1.374C.695 0 .143.542.143 1.22v12.481c0 .678.552 1.23 1.23 1.23h15.308c-1.523-.938-2.597-2.46-2.805-4.67h4.14c.27 1.47 1.542 2.356 3.503 2.356 1.543 0 2.346-.563 2.346-1.47 0-.564-.344-1.148-1.763-1.418zM34.438 6.413H32.07V4.077h2.367c1.095 0 1.648.385 1.648 1.105 0 .74-.585 1.23-1.648 1.23M36.524 9.635c0 .678-.522 1.199-1.68 1.199h-2.773V8.58h2.826c1.032 0 1.627.355 1.627 1.054"/>
        <path d="M35.21 13.18h-5.986V1.751h5.652c2.471 0 3.931 1.179 3.931 3.046 0 1.063-.584 2.148-1.595 2.502 1.397.302 2.096 1.48 2.096 2.711 0 1.897-1.523 3.17-4.099 3.17M38.942 0H25.793c1.283.845 2.284 2.2 2.482 4.317h-4.16c-.229-1.251-1.012-2.107-2.701-2.107-1.418 0-2.377.584-2.377 1.669 0 .896.667 1.292 1.919 1.564l2.325.532c3.034.667 5.015 1.887 5.015 4.754 0 1.815-.824 3.264-2.241 4.202h12.887c.678 0 1.22-.552 1.22-1.23V1.22c0-.678-.542-1.22-1.22-1.22"/>
    </g>
</svg>
