<svg width="164" height="164" viewBox="0 0 164 164" fill="none" xmlns="http://www.w3.org/2000/svg">
<rect x="2" y="2" width="160" height="160" rx="80" fill="#F2F4F7"/>
<path d="M111.714 115.429C111.714 110.245 111.714 107.654 111.074 105.545C109.634 100.796 105.918 97.0805 101.17 95.6401C99.0609 95.0003 96.4692 95.0003 91.2856 95.0003H72.7142C67.5307 95.0003 64.9389 95.0003 62.83 95.6401C58.0816 97.0805 54.3658 100.796 52.9254 105.545C52.2856 107.654 52.2856 110.245 52.2856 115.429M98.7142 65.2861C98.7142 74.5171 91.231 82.0004 81.9999 82.0004C72.7689 82.0004 65.2856 74.5171 65.2856 65.2861C65.2856 56.055 72.7689 48.5718 81.9999 48.5718C91.231 48.5718 98.7142 56.055 98.7142 65.2861Z" stroke="#475467" stroke-width="2.66667" stroke-linecap="round" stroke-linejoin="round"/>
<rect x="2" y="2" width="160" height="160" rx="80" stroke="white" stroke-width="4"/>
</svg>
